HIERARCHY
ROOT hip
{
	OFFSET 0.000000 0.000000 0.000000 
	CHANNELS 6 Xposition Yposition Zposition Xrotation Zrotation Yrotation
	JOINT abdomen
	{
		OFFSET 0.000000 3.402643 0.000000 
		CHANNELS 3 Xrotation Zrotation Yrotation
		JOINT chest
		{
			OFFSET 0.000000 8.438565 -0.680529 
			CHANNELS 3 Xrotation Zrotation Yrotation
			JOINT neck
			{
				OFFSET 0.000000 10.207942 -0.272212 
				CHANNELS 3 Xrotation Zrotation Yrotation
				JOINT head
				{
					OFFSET 0.000000 3.130431 0.000000 
					CHANNELS 3 Xrotation Zrotation Yrotation
					End Site
					{
						OFFSET 0.000000 3.130435 0.000000 
					}
				}
			}
			JOINT lCollar
			{
				OFFSET 3.470700 6.669187 -0.816635 
				CHANNELS 3 Yrotation Zrotation Xrotation
				JOINT lShldr
				{
					OFFSET 3.198488 0.000000 0.000000 
					CHANNELS 3 Zrotation Yrotation Xrotation
					JOINT lForeArm
					{
						OFFSET 10.139888 0.000000 0.000000 
						CHANNELS 3 Yrotation Zrotation Xrotation
						JOINT lHand
						{
							OFFSET 8.370511 0.000000 0.000000 
							CHANNELS 3 Zrotation Yrotation Xrotation
							End Site
							{
								OFFSET 4.083176 0.000000 0.000000 
							}
						}
					}
				}
			}
			JOINT rCollar
			{
				OFFSET -3.470700 6.669187 -0.816635 
				CHANNELS 3 Yrotation Zrotation Xrotation
				JOINT rShldr
				{
					OFFSET -3.198488 0.000000 0.000000 
					CHANNELS 3 Zrotation Yrotation Xrotation
					JOINT rForeArm
					{
						OFFSET -10.139888 0.000000 0.000000 
						CHANNELS 3 Yrotation Zrotation Xrotation
						JOINT rHand
						{
							OFFSET -8.370511 0.000000 0.000000 
							CHANNELS 3 Zrotation Yrotation Xrotation
							End Site
							{
								OFFSET -4.083176 0.000000 0.000000 
							}
						}
					}
				}
			}
		}
	}
	JOINT lThigh
	{
		OFFSET 5.308129 -1.633274 1.361059 
		CHANNELS 3 Xrotation Zrotation Yrotation
		JOINT lShin
		{
			OFFSET -2.041588 -20.007561 0.000000 
			CHANNELS 3 Xrotation Zrotation Yrotation
			JOINT lFoot
			{
				OFFSET 0.000000 -19.190928 -1.224953 
				CHANNELS 3 Xrotation Yrotation Zrotation
				End Site
				{
					OFFSET 0.000000 -2.449906 4.627600 
				}
			}
		}
	}
	JOINT rThigh
	{
		OFFSET -5.308129 -1.633274 1.361059 
		CHANNELS 3 Xrotation Zrotation Yrotation
		JOINT rShin
		{
			OFFSET 2.041588 -20.007561 0.000000 
			CHANNELS 3 Xrotation Zrotation Yrotation
			JOINT rFoot
			{
				OFFSET 0.000000 -19.190928 -1.224953 
				CHANNELS 3 Xrotation Yrotation Zrotation
				End Site
				{
					OFFSET 0.000000 -2.449906 4.627600 
				}
			}
		}
	}
}
MOTION
Frames: 9
Frame Time: 0.033333
0.527680 14.738760 0.527680 81.933594 0.000000 -51.992184 0.000000 0.000000 0.000000 -4.016858 16.988821 -10.399031 5.156250 -0.009766 0.000000 -17.415741 12.643705 -1.220225 1.992188 -2.001953 0.000341 -9.872375 -4.543015 -16.359312 -83.386009 1.605444 20.958849 54.008766 -55.722717 -13.271169 -2.001953 1.992188 0.000000 47.280960 22.368256 -34.542301 110.506332 -1.477040 21.847166 -21.496582 51.235935 18.759499 -53.000969 -11.854838 3.768462 41.602741 -0.761863 -3.277854 28.570456 -11.234016 -0.623638 -7.105107 15.111722 -15.007727 32.603970 1.155595 2.672574 -33.076149 -16.746935 0.558349 
0.527680 14.847005 0.527680 81.933594 0.000000 -51.992184 0.000000 0.000000 0.000000 -3.836547 17.812508 -11.009974 5.156250 -0.009766 0.000000 -16.332190 11.938967 -1.576251 1.992188 -2.001953 0.000341 -10.950788 -3.484324 -16.702171 -83.082001 1.602727 20.949913 55.178539 -56.290661 -14.207978 -2.001953 1.992188 0.000000 44.992924 21.047068 -36.594246 110.408867 -1.475551 21.841389 -21.496582 51.235935 18.759499 -52.845516 -11.952624 3.748544 40.988312 -0.781473 -3.234571 29.031923 -11.169202 -0.571978 -7.342477 14.978930 -15.092696 32.828217 1.130716 2.706462 -33.009342 -16.775997 0.627995 
0.527680 14.955261 0.527680 81.933594 0.000000 -51.992184 0.000000 0.000000 0.000000 -3.667409 18.640724 -11.632075 5.156250 -0.009766 0.000000 -15.251760 11.243706 -1.940090 1.992188 -2.001953 0.000341 -12.039879 -2.427602 -17.074320 -82.780502 1.599328 20.938086 56.368042 -56.854614 -15.178893 -2.001953 1.992188 0.000000 42.778500 19.655964 -38.581158 110.301659 -1.473921 21.845778 -21.496582 51.235935 18.759499 -52.681301 -12.040336 3.722083 40.363590 -0.810723 -3.203685 29.515574 -11.127032 -0.510270 -7.582912 14.838655 -15.169416 33.042240 1.121093 2.743953 -32.952232 -16.807848 0.696315 
0.527680 15.074368 0.527680 81.933594 0.000000 -51.992184 0.000000 0.000000 0.000000 -3.651888 19.410015 -12.059079 5.156250 -0.009766 0.000000 -15.370106 10.839642 -2.484136 1.992188 -2.001953 0.000341 -13.037742 -1.879840 -17.229387 -82.007584 1.595070 20.920855 57.850304 -57.486855 -16.370535 -2.001953 1.992188 0.000000 39.887314 18.679415 -40.788204 108.507576 -1.506470 21.783167 -21.485727 51.226349 18.683798 -52.531765 -12.079044 3.736006 39.845470 -0.840090 -3.197385 29.891212 -11.118013 -0.455078 -7.741435 14.762824 -15.151031 33.130562 1.130799 2.731736 -32.856773 -16.854698 0.760568 
0.527680 15.193521 0.527680 81.933594 0.000000 -51.992184 0.000000 0.000000 0.000000 -3.637686 20.186453 -12.485569 5.156250 -0.009766 0.000000 -15.492246 10.434852 -3.037863 1.992188 -2.001953 0.000341 -14.036196 -1.337625 -17.405584 -81.238083 1.589151 20.891834 59.398182 -58.096291 -17.636183 -2.001953 1.992188 0.000000 37.053993 17.593470 -42.936218 106.713989 -1.512052 21.730844 -21.461523 51.214706 18.634186 -52.373703 -12.107752 3.743627 39.318832 -0.879055 -3.154839 30.278027 -11.133105 -0.399718 -7.897439 14.674895 -15.132511 33.218800 1.130687 2.726521 -32.753315 -16.887470 0.813694 
0.527680 15.366716 0.527680 81.933594 0.000000 -51.992184 0.000000 0.000000 0.000000 -3.732634 21.004148 -12.838077 5.156250 -0.009766 0.000000 -16.566507 10.203621 -3.710407 1.992188 -2.001953 0.000341 -15.079897 -1.129043 -17.432636 -79.970093 1.586492 20.851137 61.447788 -58.821980 -19.313074 -2.001953 1.992188 0.000000 33.348511 16.612638 -45.556271 103.409431 -1.552652 21.626261 -21.417595 51.189999 18.462885 -52.207470 -12.118038 3.760369 38.781013 -0.872993 -3.154752 30.669451 -11.159139 -0.355292 -8.013724 14.634225 -15.116018 33.198753 1.136212 2.736748 -32.610447 -16.948381 0.790515 
0.527680 15.539922 0.527680 81.933594 0.000000 -51.992184 0.000000 0.000000 0.000000 -3.828747 21.819260 -13.196753 5.156250 -0.009766 0.000000 -17.633820 9.951870 -4.381288 1.992188 -2.001953 0.000341 -16.113401 -0.918775 -17.472046 -78.702751 1.582644 20.804787 63.559868 -59.528458 -21.050709 -2.001953 1.992188 0.000000 29.705940 15.473503 -48.083508 100.095634 -1.581748 21.513994 -21.378548 51.162243 18.300234 -52.052006 -12.137279 3.745025 38.254353 -0.908239 -3.110585 31.066603 -11.207265 -0.283055 -8.149501 14.603772 -15.112842 33.179783 1.116550 2.730310 -32.466705 -16.999706 0.836838 
0.527680 15.723974 0.527680 81.933594 0.000000 -51.992184 0.000000 0.000000 0.000000 -4.004583 22.668270 -13.469706 5.156250 -0.009766 0.000000 -19.428879 9.854261 -5.094029 1.992188 -2.001953 0.000341 -17.121637 -1.010482 -17.415913 -77.036263 1.573599 20.753309 66.122833 -60.253551 -23.208055 -2.001953 1.992188 0.000000 25.455198 14.393268 -50.888275 95.642014 -1.613696 21.374830 -21.326881 51.124504 18.069483 -51.901825 -12.118949 3.732955 37.727760 -0.937558 -3.064239 31.447006 -11.251148 -0.269043 -8.227096 14.574729 -15.088860 33.072250 1.120929 2.726007 -32.279293 -17.031267 0.833426 
0.527680 15.908048 0.527680 81.933594 0.000000 -51.992184 0.000000 0.000000 0.000000 -4.168578 23.507784 -13.723801 5.156250 -0.009766 0.000000 -21.226673 9.726365 -5.795480 1.992188 -2.001953 0.000341 -18.117588 -1.109513 -17.368460 -75.368912 1.563898 20.699730 68.789963 -60.935143 -25.471451 -2.001953 1.992188 0.000000 21.284594 13.122388 -53.591888 91.169304 -1.631381 21.218473 -21.273836 51.086460 17.831123 -51.728466 -12.108177 3.748915 37.180374 -0.956461 -3.052165 31.837059 -11.300338 -0.244763 -8.320383 14.569255 -15.049690 32.984829 1.130005 2.704592 -32.105804 -17.084093 0.825144 
